bicep_curl
version=1
nRows=101
nColumns=3
inDegrees=yes

# SIMM Motion File Header:
name bicep_curl
datacolumns 3
datarows 101
otherdata 1
range 0.00000 1.00000
endheader
time	/jointset/r_shoulder/r_shoulder_elev/value	/jointset/r_elbow/r_elbow_flex/value
0.000		0.000		30.000
0.010		0.000		30.700
0.020		0.000		31.400
0.030		0.000		32.100
0.040		0.000		32.800
0.050		0.000		33.500
0.060		0.000		34.200
0.070		0.000		34.900
0.080		0.000		35.600
0.090		0.000		36.300
0.100		0.000		37.000
0.110		0.000		37.700
0.120		0.000		38.400
0.130		0.000		39.100
0.140		0.000		39.800
0.150		0.000		40.500
0.160		0.000		41.200
0.170		0.000		41.900
0.180		0.000		42.600
0.190		0.000		43.300
0.200		0.000		44.000
0.210		0.000		44.700
0.220		0.000		45.400
0.230		0.000		46.100
0.240		0.000		46.800
0.250		0.000		47.500
0.260		0.000		48.200
0.270		0.000		48.900
0.280		0.000		49.600
0.290		0.000		50.300
0.300		0.000		51.000
0.310		0.000		51.700
0.320		0.000		52.400
0.330		0.000		53.100
0.340		0.000		53.800
0.350		0.000		54.500
0.360		0.000		55.200
0.370		0.000		55.900
0.380		0.000		56.600
0.390		0.000		57.300
0.400		0.000		58.000
0.410		0.000		58.700
0.420		0.000		59.400
0.430		0.000		60.100
0.440		0.000		60.800
0.450		0.000		61.500
0.460		0.000		62.200
0.470		0.000		62.900
0.480		0.000		63.600
0.490		0.000		64.300
0.500		0.000		65.000
0.510		0.000		65.700
0.520		0.000		66.400
0.530		0.000		67.100
0.540		0.000		67.800
0.550		0.000		68.500
0.560		0.000		69.200
0.570		0.000		69.900
0.580		0.000		70.600
0.590		0.000		71.300
0.600		0.000		72.000
0.610		0.000		72.700
0.620		0.000		73.400
0.630		0.000		74.100
0.640		0.000		74.800
0.650		0.000		75.500
0.660		0.000		76.200
0.670		0.000		76.900
0.680		0.000		77.600
0.690		0.000		78.300
0.700		0.000		79.000
0.710		0.000		79.700
0.720		0.000		80.400
0.730		0.000		81.100
0.740		0.000		81.800
0.750		0.000		82.500
0.760		0.000		83.200
0.770		0.000		83.900
0.780		0.000		84.600
0.790		0.000		85.300
0.800		0.000		86.000
0.810		0.000		86.700
0.820		0.000		87.400
0.830		0.000		88.100
0.840		0.000		88.800
0.850		0.000		89.500
0.860		0.000		90.200
0.870		0.000		90.900
0.880		0.000		91.600
0.890		0.000		92.300
0.900		0.000		93.000
0.910		0.000		93.700
0.920		0.000		94.400
0.930		0.000		95.100
0.940		0.000		95.800
0.950		0.000		96.500
0.960		0.000		97.200
0.970		0.000		97.900
0.980		0.000		98.600
0.990		0.000		99.300
1.000		0.000		100.000
